<?xml version="1.0" encoding="utf-8"?>
<!-- Generator: Adobe Illustrator 17.0.0, SVG Export Plug-In . SVG Version: 6.00 Build 0)  -->
<!DOCTYPE svg PUBLIC "-//W3C//DTD SVG 1.1//EN" "http://www.w3.org/Graphics/SVG/1.1/DTD/svg11.dtd">
<svg version="1.1" id="Layer_1" xmlns="http://www.w3.org/2000/svg" xmlns:xlink="http://www.w3.org/1999/xlink" x="0px" y="0px"
	 width="201px" height="55px" viewBox="0 0 201 55" enable-background="new 0 0 201 55" xml:space="preserve">
<g>
	<g>
		<polygon fill="#302356" points="11.388,54.74 0.5,44.07 11.388,44.07 		"/>
		<path fill="#6457A4" d="M39.436,0.26H5.204C2.617,0.26,0.5,2.376,0.5,4.963V36.23v3.136v4.704h4.704H8.34h31.097
			c2.587,0,4.704-2.117,4.704-4.704V4.963C44.14,2.376,42.023,0.26,39.436,0.26z"/>
		<path fill="#FFFFFF" d="M32.286,32.049h-5.462l-5.778-8.192l-2.903,3.22v4.973h-4.542V11.928h4.542v9.141l8.365-9.141h5.26
			l-7.56,8.394L32.286,32.049z"/>
	</g>
	<path id="logotype" fill="#FFFFFF" d="M79.758,26.925l6.219,10.351h-7.774l-7.241-12.35l-3.954,4.398v7.952H60.3V6.801h6.708V20.75
		L77.981,6.801h7.685L75.404,19.639C77.921,23.845,79.372,26.274,79.758,26.925z M110.81,33.1c0.355-0.118,0.636-0.222,0.844-0.311
		v3.998c-1.096,0.622-2.399,0.933-3.909,0.933c-1.629,0-2.873-0.333-3.731-1c-0.859-0.666-1.363-1.606-1.51-2.821
		c-2.073,2.547-4.62,3.82-7.641,3.82c-2.251,0-4.102-0.459-5.553-1.377c-1.451-0.918-2.177-2.665-2.177-5.242
		c0-2.103,0.6-3.709,1.799-4.82c1.2-1.111,2.866-1.858,4.998-2.243c2.132-0.384,4.887-0.578,8.263-0.578v-1.51
		c0-1.006-0.318-1.821-0.955-2.443c-0.637-0.622-1.666-0.933-3.088-0.933c-0.829,0-1.54,0.141-2.132,0.422
		c-0.593,0.282-1.044,0.63-1.355,1.044c-0.311,0.415-0.466,0.8-0.466,1.155v0.355h-6.264c-0.06-0.355-0.089-0.622-0.089-0.8
		c0-1.273,0.422-2.413,1.266-3.421c0.844-1.006,2.021-1.791,3.532-2.354c1.51-0.562,3.243-0.844,5.198-0.844h0.933
		c3.199,0,5.626,0.63,7.285,1.888c1.658,1.259,2.488,2.984,2.488,5.175v10.484c0,0.533,0.126,0.933,0.377,1.199
		c0.251,0.267,0.555,0.4,0.911,0.4C110.128,33.278,110.454,33.218,110.81,33.1z M102.191,27.102c-2.814,0-4.909,0.274-6.286,0.822
		c-1.377,0.548-2.066,1.444-2.066,2.688c0,0.977,0.274,1.666,0.822,2.066c0.548,0.4,1.384,0.6,2.51,0.6
		c0.77,0,1.54-0.207,2.31-0.622c0.77-0.414,1.414-1.006,1.933-1.777c0.518-0.77,0.777-1.628,0.777-2.577V27.102z M114.363,10.399
		h6.575V5.29h-6.575V10.399z M114.408,37.276h6.486V14.575h-6.486V37.276z M137.153,14.131c-1.274,0-2.377,0.252-3.31,0.755
		c-0.933,0.504-1.644,1.052-2.132,1.644c-0.489,0.593-0.793,1.052-0.911,1.377l-0.8-3.332h-4.798v22.701h6.397V23.238
		c0-1.214,0.273-2.228,0.822-3.043c0.548-0.814,1.34-1.222,2.377-1.222c1.095,0,1.895,0.333,2.399,1
		c0.503,0.666,0.755,1.459,0.755,2.377v1.022h5.42c0.029-0.178,0.067-0.489,0.111-0.933c0.044-0.444,0.067-0.889,0.067-1.333
		c0-2.103-0.555-3.791-1.666-5.064C140.773,14.768,139.196,14.131,137.153,14.131z M166.717,19.328
		c0.962,1.688,1.444,3.673,1.444,5.953v1.288c0,2.281-0.482,4.265-1.444,5.953c-0.963,1.688-2.288,2.976-3.976,3.865
		c-1.688,0.888-3.584,1.333-5.686,1.333h-0.711c-2.103,0-3.998-0.444-5.686-1.333s-3.014-2.177-3.976-3.865
		c-0.963-1.688-1.444-3.672-1.444-5.953v-1.288c0-2.28,0.481-4.265,1.444-5.953c0.962-1.688,2.288-2.976,3.976-3.865
		c1.688-0.888,3.583-1.333,5.686-1.333h0.711c2.103,0,3.998,0.444,5.686,1.333C164.429,16.352,165.754,17.64,166.717,19.328z
		 M161.586,24.126c0-1.806-0.452-3.183-1.355-4.131c-0.904-0.948-2.081-1.422-3.532-1.422c-1.451,0-2.629,0.474-3.532,1.422
		c-0.904,0.948-1.355,2.325-1.355,4.131v3.598c0,1.807,0.451,3.184,1.355,4.131c0.903,0.948,2.08,1.422,3.532,1.422
		c1.451,0,2.628-0.473,3.532-1.422c0.903-0.947,1.355-2.325,1.355-4.131V24.126z M186.085,24.015
		c-1.229-0.37-2.836-0.718-4.82-1.044c-1.748-0.266-3.028-0.548-3.843-0.844c-0.815-0.296-1.222-0.814-1.222-1.555
		c0-0.622,0.378-1.111,1.133-1.466c0.755-0.355,1.755-0.533,2.999-0.533c2.724,0,4.087,0.888,4.087,2.665h5.686
		c0-0.029,0.015-0.14,0.044-0.333c0.029-0.192,0.044-0.407,0.044-0.644c0-1.184-0.429-2.243-1.288-3.176
		c-0.859-0.933-1.992-1.658-3.398-2.177c-1.407-0.518-2.895-0.777-4.465-0.777h-0.889c-1.777,0-3.414,0.274-4.909,0.822
		c-1.496,0.548-2.695,1.362-3.598,2.443c-0.904,1.082-1.355,2.392-1.355,3.932c0,1.688,0.436,3.006,1.31,3.954
		c0.873,0.948,1.917,1.614,3.132,1.999c1.214,0.385,2.769,0.741,4.664,1.066c1.806,0.267,3.139,0.578,3.998,0.933
		c0.859,0.355,1.288,0.948,1.288,1.777c0,0.77-0.466,1.333-1.399,1.688c-0.933,0.355-1.992,0.533-3.176,0.533
		c-1.362,0-2.503-0.229-3.421-0.689c-0.918-0.459-1.377-1.206-1.377-2.243v-0.311h-5.686l-0.044,0.888
		c0,1.333,0.407,2.518,1.222,3.554c0.814,1.037,1.947,1.837,3.398,2.399c1.451,0.562,3.094,0.844,4.931,0.844h1.466
		c2.932,0,5.346-0.6,7.241-1.799c1.895-1.199,2.843-3.146,2.843-5.842c0-1.747-0.459-3.102-1.377-4.065
		C188.388,25.052,187.314,24.386,186.085,24.015z M194.014,30.745v6.53h6.486v-6.53H194.014z"/>
</g>
</svg>
